<mxfile host="app.diagrams.net" modified="2023-02-07T05:13:16.875Z" agent="5.0 (Windows NT 10.0; Win64; x64) AppleWebKit/537.36 (KHTML, like Gecko) Chrome/109.0.0.0 Safari/537.36" version="20.7.4" etag="W_fjHSYcY47rAulD8gSf" type="github">
  <diagram id="9vCSaNuBhPU2H-diu1tL" name="Page-1">
    <mxGraphModel dx="1674" dy="764" grid="1" gridSize="10" guides="1" tooltips="1" connect="1" arrows="1" fold="1" page="1" pageScale="1" pageWidth="1920" pageHeight="1200" math="0" shadow="0">
      <root>
        <mxCell id="0" />
        <mxCell id="1" parent="0" />
        <mxCell id="itcOHxs_7knnyTlug9ki-1" value="" style="endArrow=none;dashed=1;html=1;rounded=0;" edge="1" parent="1">
          <mxGeometry width="50" height="50" relative="1" as="geometry">
            <mxPoint x="760" y="480" as="sourcePoint" />
            <mxPoint x="760" y="80" as="targetPoint" />
          </mxGeometry>
        </mxCell>
        <mxCell id="itcOHxs_7knnyTlug9ki-2" value="Non Prod" style="text;html=1;strokeColor=none;fillColor=none;align=center;verticalAlign=middle;whiteSpace=wrap;rounded=0;" vertex="1" parent="1">
          <mxGeometry x="510" y="80" width="60" height="30" as="geometry" />
        </mxCell>
        <mxCell id="itcOHxs_7knnyTlug9ki-3" value="Prod" style="text;html=1;strokeColor=none;fillColor=none;align=center;verticalAlign=middle;whiteSpace=wrap;rounded=0;" vertex="1" parent="1">
          <mxGeometry x="960" y="80" width="60" height="30" as="geometry" />
        </mxCell>
        <mxCell id="itcOHxs_7knnyTlug9ki-4" value="Github" style="text;html=1;strokeColor=none;fillColor=none;align=center;verticalAlign=middle;whiteSpace=wrap;rounded=0;" vertex="1" parent="1">
          <mxGeometry x="470" y="20" width="570" height="30" as="geometry" />
        </mxCell>
        <mxCell id="itcOHxs_7knnyTlug9ki-8" value="" style="endArrow=classic;startArrow=classic;html=1;rounded=0;" edge="1" parent="1">
          <mxGeometry width="50" height="50" relative="1" as="geometry">
            <mxPoint x="459" y="60" as="sourcePoint" />
            <mxPoint x="1069" y="60" as="targetPoint" />
          </mxGeometry>
        </mxCell>
        <mxCell id="itcOHxs_7knnyTlug9ki-9" value="NiFi" style="rounded=0;whiteSpace=wrap;html=1;" vertex="1" parent="1">
          <mxGeometry x="520" y="368" width="120" height="60" as="geometry" />
        </mxCell>
        <mxCell id="itcOHxs_7knnyTlug9ki-10" value="NiFi" style="rounded=0;whiteSpace=wrap;html=1;" vertex="1" parent="1">
          <mxGeometry x="920" y="370" width="120" height="60" as="geometry" />
        </mxCell>
        <mxCell id="itcOHxs_7knnyTlug9ki-11" value="NiFi Registry" style="rounded=0;whiteSpace=wrap;html=1;" vertex="1" parent="1">
          <mxGeometry x="520" y="200" width="120" height="60" as="geometry" />
        </mxCell>
        <mxCell id="itcOHxs_7knnyTlug9ki-12" value="NiFi Registry" style="rounded=0;whiteSpace=wrap;html=1;" vertex="1" parent="1">
          <mxGeometry x="920" y="200" width="120" height="60" as="geometry" />
        </mxCell>
        <mxCell id="itcOHxs_7knnyTlug9ki-13" value="" style="endArrow=classic;startArrow=classic;html=1;rounded=0;exitX=0.5;exitY=0;exitDx=0;exitDy=0;" edge="1" parent="1">
          <mxGeometry x="1" y="396" width="50" height="50" relative="1" as="geometry">
            <mxPoint x="980" y="360" as="sourcePoint" />
            <mxPoint x="979.5" y="270" as="targetPoint" />
            <mxPoint x="6" y="-70" as="offset" />
          </mxGeometry>
        </mxCell>
        <mxCell id="itcOHxs_7knnyTlug9ki-14" value="" style="endArrow=classic;startArrow=classic;html=1;rounded=0;exitX=0.5;exitY=0;exitDx=0;exitDy=0;" edge="1" parent="1">
          <mxGeometry x="1" y="396" width="50" height="50" relative="1" as="geometry">
            <mxPoint x="580" y="360" as="sourcePoint" />
            <mxPoint x="579.5" y="270" as="targetPoint" />
            <mxPoint x="6" y="-70" as="offset" />
          </mxGeometry>
        </mxCell>
        <mxCell id="itcOHxs_7knnyTlug9ki-15" value="" style="endArrow=classic;startArrow=classic;html=1;rounded=0;exitX=0.575;exitY=-0.033;exitDx=0;exitDy=0;exitPerimeter=0;" edge="1" parent="1" source="itcOHxs_7knnyTlug9ki-11" target="itcOHxs_7knnyTlug9ki-4">
          <mxGeometry x="1" y="396" width="50" height="50" relative="1" as="geometry">
            <mxPoint x="520" y="190" as="sourcePoint" />
            <mxPoint x="649.5" y="20" as="targetPoint" />
            <mxPoint x="6" y="-70" as="offset" />
          </mxGeometry>
        </mxCell>
        <mxCell id="itcOHxs_7knnyTlug9ki-16" value="" style="endArrow=classic;startArrow=classic;html=1;rounded=0;exitX=0.425;exitY=-0.033;exitDx=0;exitDy=0;exitPerimeter=0;" edge="1" parent="1" source="itcOHxs_7knnyTlug9ki-12">
          <mxGeometry x="1" y="396" width="50" height="50" relative="1" as="geometry">
            <mxPoint x="970" y="180" as="sourcePoint" />
            <mxPoint x="770" y="50" as="targetPoint" />
            <mxPoint x="6" y="-70" as="offset" />
          </mxGeometry>
        </mxCell>
      </root>
    </mxGraphModel>
  </diagram>
</mxfile>
